<?xml version="1.0" encoding="utf-8"?>
<!-- Generator: Adobe Illustrator 22.1.0, SVG Export Plug-In . SVG Version: 6.00 Build 0)  -->
<svg version="1.1" id="Layer_1" xmlns="http://www.w3.org/2000/svg" xmlns:xlink="http://www.w3.org/1999/xlink" x="0px" y="0px"
	 viewBox="0 0 256 256" style="enable-background:new 0 0 256 256;" xml:space="preserve">
<style type="text/css">
	.st0{fill:#D73735;}
	.st1{fill:#F85252;}
	.st2{fill:#EDAF85;}
	.st3{fill:#F7C09A;}
	.st4{fill:#D8D6D7;}
	.st5{fill:#FFFFFF;}
	.st6{fill:#1C868E;}
	.st7{fill:#40C4DF;}
	.st8{fill:#491352;}
	.st9{fill:#56C1B3;}
	.st10{fill:#7BEFE4;}
</style>
<g>
	<g>
		<path class="st1" d="M185.458,180.984H10.208c-2.761,0-5-2.239-5-5V24.825c0-2.761,2.239-5,5-5h175.25c2.761,0,5,2.239,5,5
			v151.159C190.458,178.746,188.219,180.984,185.458,180.984z"/>
		<path class="st4" d="M190.458,46.21v129.775c0,2.761-2.239,5-5,5H10.208c-2.761,0-5-2.239-5-5V24.825c0-2.761,2.239-5,5-5H53.92
			L73.053,43.6c1.328,1.65,3.332,2.61,5.45,2.61H190.458z"/>
		<path class="st5" d="M190.458,46.21v129.775c0,2.761-2.239,5-5,5H20.38c-2.071,0-3.75-1.679-3.75-3.75V23.575
			c0-2.071,1.679-3.75,3.75-3.75h33.54L73.053,43.6c1.328,1.65,3.332,2.61,5.45,2.61H190.458z"/>
		<path class="st7" d="M127.113,132.552c-2.277-2.462-2.127-6.303,0.336-8.58l19.54-18.067l-19.54-18.067
			c-2.463-2.276-2.613-6.118-0.336-8.58c2.277-2.462,6.117-2.613,8.58-0.336l24.363,22.524c2.597,2.4,2.6,6.513,0,8.917
			l-24.363,22.524C133.233,135.163,129.391,135.016,127.113,132.552z"/>
		<path class="st7" d="M59.972,132.888l-24.363-22.524c-2.597-2.4-2.6-6.513,0-8.917l24.363-22.524
			c2.462-2.277,6.303-2.127,8.58,0.336c2.277,2.462,2.127,6.303-0.336,8.58l-19.54,18.067l19.54,18.067
			c2.463,2.276,2.613,6.118,0.336,8.58C66.273,135.017,62.432,135.162,59.972,132.888z"/>
		<path class="st7" d="M81.792,133.688c-2.904-1.677-3.899-5.39-2.223-8.294l26.01-45.05c1.677-2.903,5.388-3.899,8.294-2.223
			c2.904,1.677,3.899,5.39,2.223,8.294l-26.01,45.049C88.41,134.369,84.698,135.365,81.792,133.688z"/>
	</g>
	<path class="st6" d="M250.809,180.585c0,28.6-21.61,52.17-49.41,55.23c-2.02,0.24-4.08,0.35-6.17,0.35
		c-30.7,0-55.58-24.89-55.58-55.58c0-30.7,24.88-55.59,55.58-55.59c2.09,0,4.15,0.11,6.17,0.35
		C229.198,128.405,250.809,151.975,250.809,180.585z"/>
	<path class="st7" d="M250.809,180.585c0,28.6-21.61,52.17-49.41,55.23c-27.79-3.05-49.42-26.62-49.42-55.23
		c0-28.62,21.63-52.19,49.42-55.24C229.198,128.405,250.809,151.975,250.809,180.585z"/>
	<path class="st1" d="M234.229,153.745c0,3.14-1.19,6.27-3.59,8.66l-4.71,4.71l-44.56,44.56l-0.21,0.21l-17.76,5.59
		c-3.03,0.95-5.89-1.87-4.98-4.91l5.41-18.01l49.48-49.48c4.78-4.79,12.54-4.79,17.33,0
		C233.039,147.465,234.229,150.605,234.229,153.745z"/>
	<path class="st5" d="M226.259,166.045c0,0-0.12,0.38-0.33,1.07l-44.56,44.56l-0.4-0.32l-16.68-16.68l-0.12-0.46l45-45l0.69,0.43
		L226.259,166.045z"/>
	<circle class="st5" cx="155.819" cy="33.258" r="5.172"/>
	<circle class="st5" cx="174.75" cy="33.258" r="5.172"/>
	<g>
		<path class="st8" d="M192.438,123.069c0-9.117,0-88.616,0-98.234c0-3.86-3.141-7-7-7c-2.119,0-173.571,0-175.25,0
			c-3.859,0-7,3.14-7,7v151.16c0,3.86,3.141,7,7,7h127.518c1.271,30.635,26.58,55.17,57.522,55.17
			c31.751,0,57.583-25.832,57.583-57.583C252.812,147.878,225.411,121.485,192.438,123.069z M185.438,21.835c1.654,0,3,1.346,3,3
			v19.38H78.488c-1.524,0-2.947-0.68-3.902-1.864L58.075,21.835H185.438z M137.686,178.995H10.188c-1.654,0-3-1.346-3-3V24.835
			c0-1.654,1.346-3,3-3H52.94L71.472,44.86c1.718,2.132,4.275,3.354,7.017,3.354h109.95v75.198
			C160.394,126.724,138.469,150.26,137.686,178.995z M195.229,234.165c-29.541,0-53.583-24.048-53.583-53.583
			c0-29.546,24.037-53.583,53.583-53.583s53.583,24.037,53.583,53.583S224.774,234.165,195.229,234.165z"/>
		<path class="st8" d="M47.882,34.128c0-1.104-0.896-2-2-2H19.975c-1.104,0-2,0.896-2,2s0.896,2,2,2h25.907
			C46.986,36.128,47.882,35.233,47.882,34.128z"/>
		<path class="st8" d="M155.818,40.43c3.955,0,7.173-3.217,7.173-7.172c0-3.955-3.218-7.172-7.173-7.172s-7.172,3.217-7.172,7.172
			C148.646,37.213,151.863,40.43,155.818,40.43z M155.818,30.086c1.75,0,3.173,1.423,3.173,3.172s-1.423,3.172-3.173,3.172
			c-1.749,0-3.172-1.423-3.172-3.172S154.069,30.086,155.818,30.086z"/>
		<path class="st8" d="M174.75,40.43c3.955,0,7.173-3.217,7.173-7.172c0-3.955-3.218-7.172-7.173-7.172s-7.172,3.217-7.172,7.172
			C167.578,37.213,170.795,40.43,174.75,40.43z M174.75,30.086c1.75,0,3.173,1.423,3.173,3.172s-1.423,3.172-3.173,3.172
			c-1.749,0-3.172-1.423-3.172-3.172S173.001,30.086,174.75,30.086z"/>
		<path class="st8" d="M161.393,99.988L137.03,77.465c-1.584-1.465-3.651-2.229-5.796-2.14c-4.456,0.175-7.924,3.923-7.75,8.381
			c0.085,2.155,1.003,4.147,2.587,5.61l17.951,16.599c-19.137,17.694-20.364,17.793-20.538,22.209
			c-0.281,7.215,8.313,11.08,13.545,6.243l24.363-22.524C164.844,108.652,164.845,103.18,161.393,99.988z M158.678,108.905
			l-24.363,22.525c-1.648,1.521-4.219,1.434-5.753-0.225c0,0,0,0,0,0c-1.528-1.651-1.429-4.225,0.225-5.754l19.54-18.067
			c0.41-0.378,0.643-0.911,0.643-1.468s-0.232-1.09-0.643-1.468l-19.54-18.067c-3.953-3.654,1.592-9.62,5.528-5.978l24.363,22.523
			C160.416,104.532,160.429,107.287,158.678,108.905z"/>
		<path class="st8" d="M72.14,83.707c0.28-7.188-8.302-11.09-13.546-6.242L34.231,99.988c-3.452,3.191-3.452,8.662,0,11.854
			l24.362,22.524c5.273,4.875,13.824,0.901,13.546-6.243c-0.173-4.391-1.295-4.416-20.538-22.209
			C70.738,88.221,71.966,88.123,72.14,83.707z M47.298,104.447c-0.856,0.79-0.856,2.147,0,2.937
			c21.346,19.737,20.755,18.64,20.845,20.897c0.139,3.604-4.172,5.61-6.834,3.149c-26.454-24.458-25.669-23.06-25.669-25.514
			c0-2.454-0.837-1.008,25.67-25.514c2.626-2.431,6.974-0.503,6.833,3.149C68.053,85.814,68.634,84.719,47.298,104.447z"/>
		<path class="st8" d="M114.852,76.4c-3.854-2.225-8.801-0.897-11.025,2.955l-26.01,45.05c-2.231,3.864-0.91,8.795,2.954,11.026
			c0,0,0,0,0.001,0c3.854,2.224,8.801,0.898,11.026-2.955l26.01-45.05C120.032,83.572,118.706,78.626,114.852,76.4z M114.343,85.427
			l-26.009,45.049c-1.813,3.136-6.527,2.504-7.46-0.981c-0.615-2.298-1.807,0.745,26.416-48.139
			c1.123-1.943,3.616-2.613,5.563-1.491C114.797,80.987,115.465,83.482,114.343,85.427z"/>
		<path class="st8" d="M211.892,143.661c-0.555,0.555-49.755,49.568-49.982,50.32l-5.404,18.014
			c-1.155,3.85,1.754,7.665,5.698,7.665c1.261,0,0.299,0.194,19.555-5.864c0.727-0.229,49.756-49.436,50.295-49.975
			c2.692-2.692,4.176-6.272,4.176-10.08C236.225,141.14,220.88,134.672,211.892,143.661z M160.836,215.095
			c-1.138-1.12-0.841-0.812,4.022-17.022l12.815,12.815C161.639,215.932,161.958,216.202,160.836,215.095z M181.329,208.888
			l-14.504-14.504l42.474-42.474l14.504,14.504L181.329,208.888z M229.225,160.993l-2.593,2.593l-14.504-14.504l2.593-2.593
			c3.999-3.999,10.506-3.998,14.505,0C233.223,150.488,233.223,156.994,229.225,160.993z"/>
	</g>
</g>
</svg>
